<svg width="350" height="100" viewBox="0 0 350 100" xmlns="http://www.w3.org/2000/svg">
  <defs>
    <!-- Ultra Premium Gold Gradients -->
    <radialGradient id="goldRadial" cx="50%" cy="30%" r="70%">
      <stop offset="0%" style="stop-color:#FFFDF0;stop-opacity:1" />
      <stop offset="20%" style="stop-color:#FFD700;stop-opacity:1" />
      <stop offset="60%" style="stop-color:#DAA520;stop-opacity:1" />
      <stop offset="100%" style="stop-color:#8B7000;stop-opacity:1" />
    </radialGradient>
    
    <linearGradient id="goldMetallic" x1="0%" y1="0%" x2="100%" y2="100%">
      <stop offset="0%" style="stop-color:#FFF8DC;stop-opacity:1" />
      <stop offset="15%" style="stop-color:#FFD700;stop-opacity:1" />
      <stop offset="40%" style="stop-color:#DAA520;stop-opacity:1" />
      <stop offset="70%" style="stop-color:#B8860B;stop-opacity:1" />
      <stop offset="100%" style="stop-color:#996515;stop-opacity:1" />
    </linearGradient>
    
    <!-- Premium Black Gradients -->
    <radialGradient id="blackRadial" cx="50%" cy="50%" r="80%">
      <stop offset="0%" style="stop-color:#2a2a2a;stop-opacity:1" />
      <stop offset="50%" style="stop-color:#1a1a1a;stop-opacity:1" />
      <stop offset="100%" style="stop-color:#000000;stop-opacity:1" />
    </radialGradient>
    
    <linearGradient id="carbonFiber" x1="0%" y1="0%" x2="100%" y2="100%">
      <stop offset="0%" style="stop-color:#333333;stop-opacity:1" />
      <stop offset="50%" style="stop-color:#1a1a1a;stop-opacity:1" />
      <stop offset="100%" style="stop-color:#0a0a0a;stop-opacity:1" />
    </linearGradient>
    
    <!-- Advanced Filters -->
    <filter id="ultimateGlow">
      <feGaussianBlur stdDeviation="6" result="coloredBlur"/>
      <feColorMatrix type="matrix" values="1 0 0 0 0  0 1 0 0 0  0 0 1 0 0  0 0 0 2 0"/>
      <feMerge> 
        <feMergeNode in="coloredBlur"/>
        <feMergeNode in="SourceGraphic"/>
      </feMerge>
    </filter>
    
    <filter id="deepShadow">
      <feDropShadow dx="6" dy="8" stdDeviation="12" flood-color="#000" flood-opacity="0.8"/>
    </filter>
    
    <filter id="emboss">
      <feConvolveMatrix order="3" kernelMatrix="2 0 0 0 -1 0 0 0 -1"/>
    </filter>
    
    <!-- Textures -->
    <pattern id="carbonTexture" patternUnits="userSpaceOnUse" width="4" height="4">
      <rect width="4" height="4" fill="#1a1a1a"/>
      <circle cx="2" cy="2" r="0.5" fill="#333"/>
    </pattern>
  </defs>
  
  <!-- Main Logo Shield -->
  <path d="M15 20 L75 10 L75 70 L45 85 L15 70 Z" fill="url(#blackRadial)" stroke="url(#goldMetallic)" stroke-width="4" filter="url(#deepShadow)"/>
  
  <!-- Premium Hand with Parts -->
  <g transform="translate(25, 25)">
    <!-- Detailed Strong Hand -->
    <path d="M5 15 C8 10 15 8 22 12 L30 18 C35 22 35 30 30 36 L22 45 C18 48 12 48 5 44 L2 36 C-2 30 -2 22 2 18 Z" 
          fill="url(#goldRadial)" stroke="url(#goldMetallic)" stroke-width="2.5" filter="url(#ultimateGlow)"/>
    
    <!-- Hand Knuckles and Details -->
    <ellipse cx="15" cy="25" rx="3" ry="2" fill="url(#goldMetallic)" opacity="0.8"/>
    <ellipse cx="20" cy="27" rx="2.5" ry="1.5" fill="url(#goldMetallic)" opacity="0.8"/>
    <ellipse cx="25" cy="29" rx="2" ry="1" fill="url(#goldMetallic)" opacity="0.8"/>
    
    <!-- Thumb Detail -->
    <path d="M8 25 C12 22 18 25 22 28 C25 31 22 37 18 40 C14 43 8 40 5 36 Z" 
          fill="url(#goldMetallic)" stroke="#DAA520" stroke-width="1.5" opacity="0.9"/>
    
    <!-- Ultra-Detailed Auto Part -->
    <g transform="translate(32, 8)">
      <!-- Outer gear ring -->
      <circle cx="0" cy="0" r="9" fill="url(#carbonFiber)" stroke="url(#goldMetallic)" stroke-width="2"/>
      <!-- Inner gear -->
      <circle cx="0" cy="0" r="6" fill="url(#goldRadial)"/>
      <circle cx="0" cy="0" r="3" fill="url(#blackRadial)"/>
      
      <!-- 12 Precision Gear Teeth -->
      <rect x="-1" y="-12" width="2" height="4" fill="url(#goldMetallic)"/>
      <rect x="-1" y="8" width="2" height="4" fill="url(#goldMetallic)"/>
      <rect x="-12" y="-1" width="4" height="2" fill="url(#goldMetallic)"/>
      <rect x="8" y="-1" width="4" height="2" fill="url(#goldMetallic)"/>
      
      <rect x="-8.5" y="-8.5" width="3" height="2" fill="url(#goldMetallic)" transform="rotate(45)"/>
      <rect x="5.5" y="-8.5" width="3" height="2" fill="url(#goldMetallic)" transform="rotate(45)"/>
      <rect x="-8.5" y="6.5" width="3" height="2" fill="url(#goldMetallic)" transform="rotate(45)"/>
      <rect x="5.5" y="6.5" width="3" height="2" fill="url(#goldMetallic)" transform="rotate(45)"/>
      
      <rect x="-6" y="-10" width="2" height="3" fill="url(#goldMetallic)" transform="rotate(30)"/>
      <rect x="4" y="-10" width="2" height="3" fill="url(#goldMetallic)" transform="rotate(-30)"/>
      <rect x="-6" y="7" width="2" height="3" fill="url(#goldMetallic)" transform="rotate(-30)"/>
      <rect x="4" y="7" width="2" height="3" fill="url(#goldMetallic)" transform="rotate(30)"/>
      
      <!-- Center bolt -->
      <circle cx="0" cy="0" r="1.5" fill="url(#goldMetallic)"/>
      <circle cx="0" cy="0" r="0.8" fill="url(#blackRadial)"/>
    </g>
    
    <!-- Professional Wrench -->
    <rect x="20" y="30" width="20" height="5" rx="2.5" fill="url(#carbonFiber)" stroke="url(#goldMetallic)" stroke-width="1.5"/>
    <rect x="38" y="27" width="10" height="11" rx="4" fill="url(#carbonFiber)" stroke="url(#goldMetallic)" stroke-width="1.5"/>
    <rect x="40" y="30" width="6" height="5" rx="2" fill="url(#goldRadial)"/>
    <line x1="22" y1="32.5" x2="36" y2="32.5" stroke="url(#goldMetallic)" stroke-width="1"/>
  </g>
  
  <!-- Elite Delivery Truck -->
  <g transform="translate(15, 60)">
    <!-- Main truck body -->
    <rect x="0" y="10" width="30" height="15" rx="4" fill="url(#blackRadial)" stroke="url(#goldMetallic)" stroke-width="3"/>
    <rect x="30" y="12" width="12" height="13" rx="3" fill="url(#blackRadial)" stroke="url(#goldMetallic)" stroke-width="3"/>
    
    <!-- Premium wheels -->
    <circle cx="8" cy="28" r="5" fill="url(#carbonFiber)" stroke="url(#goldMetallic)" stroke-width="3"/>
    <circle cx="34" cy="28" r="5" fill="url(#carbonFiber)" stroke="url(#goldMetallic)" stroke-width="3"/>
    <circle cx="8" cy="28" r="3" fill="url(#goldRadial)"/>
    <circle cx="34" cy="28" r="3" fill="url(#goldRadial)"/>
    <circle cx="8" cy="28" r="1.5" fill="url(#blackRadial)"/>
    <circle cx="34" cy="28" r="1.5" fill="url(#blackRadial)"/>
    
    <!-- Luxury details -->
    <rect x="3" y="13" width="8" height="4" rx="2" fill="url(#goldMetallic)" opacity="0.9"/>
    <rect x="32" y="15" width="6" height="4" rx="1" fill="url(#goldMetallic)" opacity="0.9"/>
    <line x1="5" y1="20" x2="25" y2="20" stroke="url(#goldMetallic)" stroke-width="2"/>
    <rect x="10" y="22" width="15" height="2" rx="1" fill="url(#goldMetallic)" opacity="0.7"/>
  </g>
  
  <!-- Dynamic Speed Elements -->
  <g opacity="0.95">
    <line x1="90" y1="40" x2="105" y2="40" stroke="url(#goldMetallic)" stroke-width="5" stroke-linecap="round" filter="url(#ultimateGlow)"/>
    <line x1="90" y1="50" x2="100" y2="50" stroke="url(#goldMetallic)" stroke-width="4" stroke-linecap="round" filter="url(#ultimateGlow)"/>
    <line x1="90" y1="60" x2="95" y2="60" stroke="url(#goldMetallic)" stroke-width="3" stroke-linecap="round" filter="url(#ultimateGlow)"/>
    
    <!-- Speed particles -->
    <circle cx="110" cy="38" r="1.5" fill="url(#goldRadial)" opacity="0.8"/>
    <circle cx="105" cy="45" r="1" fill="url(#goldRadial)" opacity="0.6"/>
    <circle cx="100" cy="55" r="0.8" fill="url(#goldRadial)" opacity="0.4"/>
  </g>
  
  <!-- Elite Company Branding -->
  <g>
    <!-- Premium Company Name -->
    <text x="120" y="45" font-family="Oswald, Impact, Arial Black" font-size="42" font-weight="900" 
          fill="url(#blackRadial)" stroke="url(#goldMetallic)" stroke-width="1.5" filter="url(#ultimateGlow)">
      Shop
    </text>
    <text x="200" y="45" font-family="Oswald, Impact, Arial Black" font-size="42" font-weight="900" 
          fill="url(#goldRadial)" stroke="url(#goldMetallic)" stroke-width="1.5" filter="url(#ultimateGlow)">
      Hand
    </text>
    <text x="275" y="45" font-family="Times New Roman, serif" font-size="24" font-weight="bold" 
          fill="url(#goldMetallic)" filter="url(#ultimateGlow)">
      ™
    </text>
    
    <!-- Elite Tagline -->
    <text x="120" y="62" font-family="Montserrat, Arial, sans-serif" font-size="16" font-weight="700" 
          fill="url(#blackRadial)" opacity="0.95">
      ELITE PARTS DELIVERY
    </text>
    
    <!-- Premium Slogan -->
    <text x="120" y="78" font-family="Montserrat, Arial, sans-serif" font-size="12" font-weight="500" 
          fill="url(#carbonFiber)" opacity="0.9">
      Need a part? Shop Hand it!
    </text>
  </g>
  
  <!-- Elite Badges -->
  <rect x="300" y="15" width="35" height="20" rx="6" fill="url(#goldRadial)" stroke="url(#goldMetallic)" stroke-width="2" filter="url(#ultimateGlow)"/>
  <text x="302" y="27" font-family="Arial Black, sans-serif" font-size="10" font-weight="900" fill="url(#blackRadial)">
    ELITE
  </text>
  
  <!-- Professional Accents -->
  <circle cx="18" cy="18" r="4" fill="url(#goldRadial)" opacity="0.7" filter="url(#ultimateGlow)"/>
  <circle cx="72" cy="18" r="4" fill="url(#goldRadial)" opacity="0.7" filter="url(#ultimateGlow)"/>
  <circle cx="18" cy="82" r="4" fill="url(#goldRadial)" opacity="0.7" filter="url(#ultimateGlow)"/>
  <circle cx="72" cy="82" r="4" fill="url(#goldRadial)" opacity="0.7" filter="url(#ultimateGlow)"/>
  
  <!-- Premium border frame -->
  <rect x="5" y="5" width="340" height="90" rx="15" fill="none" stroke="url(#goldMetallic)" stroke-width="2" opacity="0.5"/>
</svg>